<?xml version="1.0" encoding="UTF-8" standalone="no"?>
<!-- Created with Inkscape (http://www.inkscape.org/) -->

<svg
   xmlns:dc="http://purl.org/dc/elements/1.1/"
   xmlns:cc="http://creativecommons.org/ns#"
   xmlns:rdf="http://www.w3.org/1999/02/22-rdf-syntax-ns#"
   xmlns:svg="http://www.w3.org/2000/svg"
   xmlns="http://www.w3.org/2000/svg"
   xmlns:sodipodi="http://sodipodi.sourceforge.net/DTD/sodipodi-0.dtd"
   xmlns:inkscape="http://www.inkscape.org/namespaces/inkscape"
   width="141.07494mm"
   height="84.660095mm"
   viewBox="0 0 499.87182 299.97671"
   id="svg5450"
   version="1.1"
   inkscape:version="0.91 r13725"
   sodipodi:docname="icon_tx_jvchat_session.svg">
  <defs
     id="defs5452" />
  <sodipodi:namedview
     id="base"
     pagecolor="#ffffff"
     bordercolor="#666666"
     borderopacity="1.0"
     inkscape:pageopacity="0.0"
     inkscape:pageshadow="2"
     inkscape:zoom="0.35"
     inkscape:cx="306.9094"
     inkscape:cy="-71.006209"
     inkscape:document-units="px"
     inkscape:current-layer="layer1"
     showgrid="false"
     fit-margin-top="0"
     fit-margin-left="0"
     fit-margin-right="0"
     fit-margin-bottom="0"
     inkscape:window-width="1920"
     inkscape:window-height="1054"
     inkscape:window-x="1920"
     inkscape:window-y="0"
     inkscape:window-maximized="1" />
  <metadata
     id="metadata5455">
    <rdf:RDF>
      <cc:Work
         rdf:about="">
        <dc:format>image/svg+xml</dc:format>
        <dc:type
           rdf:resource="http://purl.org/dc/dcmitype/StillImage" />
        <dc:title></dc:title>
      </cc:Work>
    </rdf:RDF>
  </metadata>
  <g
     inkscape:label="Ebene 1"
     inkscape:groupmode="layer"
     id="layer1"
     transform="translate(-68.090602,-161.37929)">
    <path
       style="fill:#2e2e2e;fill-opacity:1"
       d="m 208.91828,459.99288 c -7.56435,-1.62855 -14.39173,-6.71213 -18.30634,-13.63069 l -3.11197,-5.5 -0.30263,-30.61724 c -0.2479,-25.07981 -0.0187,-31.84157 1.26732,-37.38672 2.27045,-9.79 7.95701,-19.94369 15.15272,-27.05608 9.05472,-8.94987 16.66053,-12.49936 38.48462,-17.96008 l 18.53192,-4.63697 6.43302,4.01996 c 6.98428,4.36444 18.20343,9.13732 27.53518,11.7141 7.83351,2.16306 31.42925,3.05537 39.65624,1.49966 10.63539,-2.01114 24.05121,-6.91933 33.10899,-12.11297 l 8.67393,-4.97355 18.21501,4.57426 c 21.60104,5.42457 29.19585,8.99891 38.15271,17.95577 6.35072,6.35072 11.0031,14.03335 14.21874,23.47986 1.68071,4.93736 1.87223,8.87583 1.87223,38.5 l 0,33 -3.09949,5.5 c -4.17983,7.41707 -11.30612,12.42997 -19.7642,13.90288 -9.27374,1.61495 -209.11836,1.36395 -216.718,-0.27219 z M 82.22503,435.19132 c -5.77429,-1.29223 -11.65103,-6.96679 -13.20622,-12.75187 -0.79549,-2.9591 -1.07807,-11.23245 -0.8539,-25 l 0.33506,-20.57726 3.1252,-6.5 c 3.61622,-7.52125 9.89552,-14.20301 16.50047,-17.55805 2.54412,-1.2923 10.01126,-3.70929 16.59363,-5.37108 l 11.96795,-3.02145 8.49486,4.37115 c 18.06639,9.2963 38.4948,10.04747 57.10589,2.09983 1.64742,-0.70351 1.6328,-0.49843 -0.18586,2.60803 -1.08563,1.85436 -3.22545,6.97157 -4.75516,11.37157 -2.7766,7.98649 -2.78191,8.05361 -3.14888,39.75 l -0.36758,31.75 -43.66526,-0.10709 c -24.01589,-0.0589 -45.58898,-0.5376 -47.9402,-1.06378 z m 379.5455,-30.57913 c -0.37484,-29.83335 -0.53767,-32.17257 -2.6974,-38.75 -1.26417,-3.85 -3.14779,-8.66957 -4.18582,-10.71016 -1.03804,-2.04059 -1.88734,-3.92628 -1.88734,-4.19043 0,-0.26414 3.2625,0.64587 7.25,2.02226 16.16348,5.57925 34.11178,4.23428 49.63809,-3.71967 l 9.45662,-4.84451 11.95197,3.01741 c 13.81693,3.48824 19.67356,6.19464 25.04923,11.57549 9.67779,9.68711 11.62518,16.87039 11.61651,42.84961 -0.005,16.41326 -0.26082,19.56038 -1.87554,23.11609 -2.3111,5.08921 -7.21719,8.94566 -13.10693,10.30276 -2.70081,0.62231 -21.62233,1.04197 -47.64521,1.0567 l -43.16526,0.0245 -0.39892,-31.75 z M 142.19057,343.33721 c -10.31073,-2.70112 -16.61494,-6.37773 -24.79067,-14.45792 -21.63507,-21.38223 -21.80801,-54.76733 -0.39565,-76.37824 26.32952,-26.57366 70.85407,-19.31878 86.92361,14.16342 10.7154,22.32641 6.92424,45.16438 -10.32782,62.21482 -8.29333,8.19641 -14.50289,11.7726 -25.18551,14.50475 -9.56537,2.44641 -16.75576,2.43357 -26.22396,-0.0468 z m 325,0 c -10.31073,-2.70112 -16.61494,-6.37773 -24.79067,-14.45792 -21.63507,-21.38223 -21.80801,-54.76733 -0.39565,-76.37824 26.32952,-26.57366 70.85407,-19.31878 86.92361,14.16342 10.7154,22.32641 6.92424,45.16438 -10.32782,62.21482 -8.29333,8.19641 -14.50289,11.7726 -25.18551,14.50475 -9.56537,2.44641 -16.75576,2.43357 -26.22396,-0.0468 z M 304.7044,323.79985 c -10.0366,-1.56174 -23.51031,-6.70706 -31.66477,-12.09209 -8.65441,-5.71518 -20.16396,-17.87462 -25.41076,-26.84557 -22.78901,-38.96457 -10.4325,-88.30282 27.95578,-111.62451 41.51742,-25.22271 95.81145,-8.7207 116.45454,35.39495 5.19369,11.09928 7.17122,20.73142 7.23282,35.22956 0.0482,11.33627 -0.28779,14.12908 -2.625,21.82235 -3.05991,10.07217 -5.24946,14.69283 -10.98298,23.17765 -13.14931,19.45916 -33.86192,32.1132 -57.98642,35.42587 -9.50783,1.30557 -11.75185,1.25788 -22.97321,-0.48821 z"
       id="path5520"
       inkscape:connector-curvature="0" />
  </g>
</svg>
