<?xml version="1.0" encoding="UTF-8" standalone="no"?>
<!-- Created with Inkscape (http://www.inkscape.org/) -->

<svg
   xmlns:dc="http://purl.org/dc/elements/1.1/"
   xmlns:cc="http://creativecommons.org/ns#"
   xmlns:rdf="http://www.w3.org/1999/02/22-rdf-syntax-ns#"
   xmlns:svg="http://www.w3.org/2000/svg"
   xmlns="http://www.w3.org/2000/svg"
   xmlns:sodipodi="http://sodipodi.sourceforge.net/DTD/sodipodi-0.dtd"
   xmlns:inkscape="http://www.inkscape.org/namespaces/inkscape"
   width="112.77386mm"
   height="98.717392mm"
   viewBox="0 0 399.59243 349.78603"
   id="svg5324"
   version="1.1"
   inkscape:version="0.91 r13725"
   sodipodi:docname="icon_tx_jvchat_room.svg">
  <defs
     id="defs5326" />
  <sodipodi:namedview
     id="base"
     pagecolor="#ffffff"
     bordercolor="#666666"
     borderopacity="1.0"
     inkscape:pageopacity="0.0"
     inkscape:pageshadow="2"
     inkscape:zoom="0.35"
     inkscape:cx="167.87818"
     inkscape:cy="208.13417"
     inkscape:document-units="px"
     inkscape:current-layer="layer1"
     showgrid="false"
     fit-margin-top="0"
     fit-margin-left="0"
     fit-margin-right="0"
     fit-margin-bottom="0"
     inkscape:window-width="1920"
     inkscape:window-height="1054"
     inkscape:window-x="1920"
     inkscape:window-y="0"
     inkscape:window-maximized="1" />
  <metadata
     id="metadata5329">
    <rdf:RDF>
      <cc:Work
         rdf:about="">
        <dc:format>image/svg+xml</dc:format>
        <dc:type
           rdf:resource="http://purl.org/dc/dcmitype/StillImage" />
        <dc:title></dc:title>
      </cc:Work>
    </rdf:RDF>
  </metadata>
  <g
     inkscape:label="Ebene 1"
     inkscape:groupmode="layer"
     id="layer1"
     transform="translate(-207.12182,-390.71033)">
    <path
       style="fill:#2e2e2e;fill-opacity:1"
       d="m 436.54025,738.96955 c -1.4707,-0.93095 -3.1582,-2.75534 -3.75,-4.05419 -0.7243,-1.58966 -1.07599,-19.50604 -1.07599,-54.81449 l 0,-52.45295 -25,0 -25,0 0,52.92327 0,52.92328 -2.58889,3.07672 -2.5889,3.07673 -50.28898,0 c -55.31737,0 -53.8795,0.14688 -61.1628,-6.24787 -2.03721,-1.78867 -4.64146,-5.27713 -5.78722,-7.75213 -2.05125,-4.43096 -2.09088,-5.91523 -2.58321,-96.74496 l -0.5,-92.24496 -16.87754,13.49496 c -9.28265,7.42223 -17.51664,13.49496 -18.29775,13.49496 -3.08582,0 -14.76375,-15.04134 -13.86832,-17.86259 0.75349,-2.37404 181.69511,-148.63046 188.09295,-152.03689 2.47864,-1.31972 6.69478,-2.60974 9.36921,-2.86672 9.44331,-0.90738 12.60141,0.9727 43.78764,26.06765 15.83659,12.7434 40.94381,32.94251 55.79381,44.88691 l 27,21.71708 0.27126,-20.12587 c 0.17235,-12.78786 0.67275,-20.60965 1.37244,-21.45272 1.46418,-1.76423 20.91004,-1.87311 22.6563,-0.12685 0.88102,0.88102 1.2,9.32983 1.2,31.78423 l 0,30.58423 24.40271,19.74105 c 22.12756,17.90051 25.59729,21.10563 25.59729,23.64512 0,0.94274 -10.75527,14.22397 -12.37394,15.28006 -0.61933,0.40408 -1.68261,0.74158 -2.36285,0.75 -0.68023,0.008 -8.78023,-6.05906 -18,-13.48329 l -16.76321,-13.49861 -0.5,92.74861 c -0.47438,87.99614 -0.59541,92.92794 -2.36195,96.2486 -2.59911,4.88565 -7.42266,9.78853 -12.13805,12.33763 -3.92667,2.12273 -4.90746,2.16708 -53.5,2.41951 -45.05722,0.23406 -49.74,0.10522 -52.17401,-1.43551 z m -79.82599,-75.77458 c 0,-38.53726 0.31695,-53.14857 1.19469,-55.07499 2.45156,-5.3806 3.25047,-5.47253 47.50565,-5.46648 25.18549,0.003 42.23418,0.40396 44.54806,1.04656 6.91147,1.91941 6.7516,0.51295 6.7516,59.3982 l 0,52.54966 37.5,0 37.5,0 0,-99.81499 0,-99.815 -8.75,-7.03703 c -4.8125,-3.87037 -32.5719,-26.26494 -61.68755,-49.76573 -40.21997,-32.46366 -53.45217,-42.63032 -55.07968,-42.31921 -1.17816,0.22522 -29.66877,22.63269 -63.31244,49.79437 l -61.17033,49.38487 0,99.78636 0,99.78636 37.5,0 37.5,0 0,-52.45295 z"
       id="path5429"
       inkscape:connector-curvature="0" />
  </g>
</svg>
