<?xml version="1.0" encoding="UTF-8" standalone="no"?>
<!-- Created with Inkscape (http://www.inkscape.org/) -->

<svg
   xmlns:dc="http://purl.org/dc/elements/1.1/"
   xmlns:cc="http://creativecommons.org/ns#"
   xmlns:rdf="http://www.w3.org/1999/02/22-rdf-syntax-ns#"
   xmlns:svg="http://www.w3.org/2000/svg"
   xmlns="http://www.w3.org/2000/svg"
   xmlns:sodipodi="http://sodipodi.sourceforge.net/DTD/sodipodi-0.dtd"
   xmlns:inkscape="http://www.inkscape.org/namespaces/inkscape"
   width="126.80816mm"
   height="98.512238mm"
   viewBox="0 0 449.32025 349.05911"
   id="svg4586"
   version="1.1"
   inkscape:version="0.91 r13725"
   sodipodi:docname="icon_tx_vjchat_entry.svg">
  <defs
     id="defs4588" />
  <sodipodi:namedview
     id="base"
     pagecolor="#ffffff"
     bordercolor="#666666"
     borderopacity="1.0"
     inkscape:pageopacity="0.0"
     inkscape:pageshadow="2"
     inkscape:zoom="0.35"
     inkscape:cx="262.59051"
     inkscape:cy="15.443067"
     inkscape:document-units="px"
     inkscape:current-layer="layer1"
     showgrid="false"
     fit-margin-top="0"
     fit-margin-left="0"
     fit-margin-right="0"
     fit-margin-bottom="0"
     inkscape:window-width="1920"
     inkscape:window-height="1054"
     inkscape:window-x="1920"
     inkscape:window-y="0"
     inkscape:window-maximized="1" />
  <metadata
     id="metadata4591">
    <rdf:RDF>
      <cc:Work
         rdf:about="">
        <dc:format>image/svg+xml</dc:format>
        <dc:type
           rdf:resource="http://purl.org/dc/dcmitype/StillImage" />
        <dc:title></dc:title>
      </cc:Work>
    </rdf:RDF>
  </metadata>
  <g
     inkscape:label="Ebene 1"
     inkscape:groupmode="layer"
     id="layer1"
     transform="translate(-112.40949,-198.74616)">
    <path
       style="fill:#2e2e2e;fill-opacity:1"
       d="m 518.64284,547.69574 c -22.27498,-1.43208 -41.9084,-6.98605 -64.5,-18.24599 -8.2214,-4.09765 -9.97106,-4.6278 -13,-3.93899 -21.85366,4.96972 -59.04005,5.09788 -82,0.28261 -12.11723,-2.54128 -36.66963,-10.09487 -35.76221,-11.0023 0.16661,-0.1666 5.91876,-1.0335 12.78257,-1.92643 25.21974,-3.28091 45.86219,-8.49832 65.97964,-16.67644 6.21994,-2.52853 12.43479,-4.23575 18,-4.94461 4.675,-0.59547 13.43832,-2.32082 19.47405,-3.83412 l 10.97405,-2.75144 6.52595,4.01828 c 19.81306,12.19967 47.39813,21.70801 62.88642,21.67643 l 4.63953,-0.009 -4.5,-2.64159 c -6.4089,-3.76215 -14.10798,-10.1872 -19.05118,-15.89863 -4.86886,-5.62553 -10.47262,-16.6628 -11.47641,-22.60416 l -0.68336,-4.04475 8.58109,-7.95496 c 23.7826,-22.04727 32.48589,-49.59978 23.79726,-75.3364 -1.79528,-5.31781 -1.79601,-5.72442 -0.0246,-13.74028 2.73354,-12.36974 4.0996,-29.86632 3.11861,-39.94357 -0.9939,-10.20991 -0.92099,-10.21802 7.28499,-0.80965 36.77567,42.16428 40.0256,95.40465 8.42573,138.03052 -2.73467,3.68886 -4.97212,6.9429 -4.97212,7.2312 0,0.2883 3.35033,2.61235 7.44517,5.16455 8.34395,5.20056 12.33162,9.66794 16.27311,18.23075 3.56777,7.7509 3.72892,19.8763 0.37927,28.53752 -5.93781,15.35345 -21.71943,24.3456 -40.59755,23.13191 z M 143.92331,497.31036 c -24.69366,-4.04791 -38.42535,-30.01428 -27.83745,-52.64009 3.58304,-7.6568 9.52753,-13.59096 18.64697,-18.61459 3.8005,-2.09359 7.93293,-4.64917 9.18317,-5.67906 l 2.27317,-1.87252 -6.77317,-8.44333 C 106.21861,368.6774 103.48777,319.4884 131.99343,276.3622 c 11.00973,-16.65663 26.00896,-31.44621 44.14941,-43.53235 23.48726,-15.64847 51.18026,-26.14503 83.5,-31.64927 17.76848,-3.02608 60.02454,-3.28534 77,-0.47244 59.23294,9.81515 103.56713,35.4645 130.09362,75.2651 15.71923,23.5853 22.91945,52.18922 19.10288,75.88896 -8.16146,50.68008 -49.47602,93.51879 -109.4728,113.51139 -37.95281,12.64694 -83.53641,15.36586 -124.27362,7.41254 l -7.54992,-1.47401 -11.45008,5.38169 c -28.3358,13.3182 -49.9079,19.09019 -78.45008,20.99069 -3.3,0.21973 -8.12379,0.0514 -10.71953,-0.37414 z m 36.54559,-40.90331 c 15.55813,-4.0115 27.3082,-8.65817 44.46285,-17.58326 l 14.28891,-7.43412 7.21109,1.96923 c 36.92615,10.08392 82.73186,8.68254 119.62837,-3.65991 51.77578,-17.3198 88.26028,-60.52201 83.07759,-98.37426 -3.49959,-25.55959 -19.42373,-48.7326 -45.94906,-66.86571 -24.46503,-16.72464 -51.9494,-25.55108 -87.94425,-28.24277 -19.33563,-1.44591 -41.27381,-0.0628 -59.56609,3.7555 -52.03884,10.86238 -91.01672,40.93253 -103.55651,79.89045 -3.10811,9.6561 -3.13447,24.76964 -0.0627,35.94341 4.6157,16.78986 16.76841,34.4581 32.28275,46.93433 l 8.55255,6.87774 -1.26188,4.78358 c -4.36019,16.5287 -17.32112,32.04272 -35.2397,42.18133 -2.8875,1.63379 -5.25,3.21995 -5.25,3.52481 0,1.38314 18.82061,-0.99163 29.32607,-3.70035 z"
       id="path4672"
       inkscape:connector-curvature="0" />
  </g>
</svg>
