<?xml version="1.0" encoding="UTF-8" standalone="no"?>
<!-- Created with Inkscape (http://www.inkscape.org/) -->

<svg
   xmlns:dc="http://purl.org/dc/elements/1.1/"
   xmlns:cc="http://creativecommons.org/ns#"
   xmlns:rdf="http://www.w3.org/1999/02/22-rdf-syntax-ns#"
   xmlns:svg="http://www.w3.org/2000/svg"
   xmlns="http://www.w3.org/2000/svg"
   xmlns:sodipodi="http://sodipodi.sourceforge.net/DTD/sodipodi-0.dtd"
   xmlns:inkscape="http://www.inkscape.org/namespaces/inkscape"
   width="98.213333mm"
   height="112.82618mm"
   viewBox="0 0 348 399.7778"
   id="svg4693"
   version="1.1"
   inkscape:version="0.91 r13725"
   sodipodi:docname="icon_tx_vjchat_messages.svg">
  <defs
     id="defs4695" />
  <sodipodi:namedview
     id="base"
     pagecolor="#ffffff"
     bordercolor="#666666"
     borderopacity="1.0"
     inkscape:pageopacity="0.0"
     inkscape:pageshadow="2"
     inkscape:zoom="0.35"
     inkscape:cx="-380.71429"
     inkscape:cy="81.658633"
     inkscape:document-units="px"
     inkscape:current-layer="layer1"
     showgrid="false"
     fit-margin-top="0"
     fit-margin-left="0"
     fit-margin-right="0"
     fit-margin-bottom="0"
     inkscape:window-width="1920"
     inkscape:window-height="1054"
     inkscape:window-x="1920"
     inkscape:window-y="0"
     inkscape:window-maximized="1" />
  <metadata
     id="metadata4698">
    <rdf:RDF>
      <cc:Work
         rdf:about="">
        <dc:format>image/svg+xml</dc:format>
        <dc:type
           rdf:resource="http://purl.org/dc/dcmitype/StillImage" />
        <dc:title></dc:title>
      </cc:Work>
    </rdf:RDF>
  </metadata>
  <g
     inkscape:label="Ebene 1"
     inkscape:groupmode="layer"
     id="layer1"
     transform="translate(-88.571434,-214.24303)">
    <path
       style="fill:#2e2e2e;fill-opacity:1"
       d="m 118.8519,613.34508 c -11.79023,-2.0194 -22.643436,-10.19022 -27.610286,-20.78636 l -2.67018,-5.6965 0,-148 0,-148 2.92576,-5.77756 c 3.60943,-7.12764 10.802846,-14.00214 18.356166,-17.54238 5.56989,-2.61061 6.32704,-2.69302 29.21807,-3.18006 l 23.5,-0.5 0.5,-22.71659 c 0.44133,-20.05116 0.70925,-22.92585 2.28337,-24.5 1.56563,-1.56567 4.16217,-1.82121 21.26733,-2.093 l 19.48396,-0.3096 2.98267,2.98267 2.98267,2.98267 0,22.08618 0,22.08617 50.25,-0.25925 50.25,-0.25925 0.5,-22.71659 c 0.44133,-20.05116 0.70925,-22.92585 2.28337,-24.5 1.56563,-1.56567 4.16217,-1.82121 21.26733,-2.093 l 19.48396,-0.3096 2.98267,2.98267 2.98267,2.98267 0,22.07693 0,22.07692 21.41091,0 c 18.01606,0 22.35246,0.29304 27.34919,1.8482 10.76817,3.35144 18.38997,10.18202 23.60188,21.1518 l 2.13802,4.5 0,147 0,147 -2.90094,6.28203 c -3.68442,7.97868 -12.2075,16.11102 -20.31448,19.38318 l -5.78458,2.33479 -142,0.14561 c -78.1,0.0801 -144.12379,-0.21816 -146.71953,-0.66275 z m 280.18435,-38.91712 c 0.69659,-1.3016 1.03518,-40.06063 1.03518,-118.5 l 0,-116.56574 -137.5,0 -137.5,0 0,117.3 c 0,89.9 0.28031,117.58031 1.2,118.5 0.9215,0.9215 32.59218,1.2 136.46482,1.2 132.7089,0 135.28437,-0.0365 136.3,-1.93426 z m -230.63608,-61.5235 c -1.7442,-0.75871 -3.6567,-2.28652 -4.25,-3.39512 -0.66282,-1.23848 -1.07874,-9.32395 -1.07874,-20.97059 0,-25.59468 -1.96261,-23.58523 23.42705,-23.98612 l 19.60761,-0.3096 2.98267,2.98267 2.98267,2.98267 0,18.64267 c 0,11.44196 -0.41734,19.42247 -1.08049,20.66158 -2.08303,3.89217 -6.80045,4.85222 -23.63739,4.81046 -11.1411,-0.0276 -16.71469,-0.4448 -18.95338,-1.41862 z m 75,0 c -1.7442,-0.75871 -3.6567,-2.28652 -4.25,-3.39512 -0.66282,-1.23848 -1.07874,-9.32395 -1.07874,-20.97059 0,-25.59468 -1.96261,-23.58523 23.42705,-23.98612 l 19.60761,-0.3096 2.98267,2.98267 2.98267,2.98267 0,18.64267 c 0,11.44196 -0.41734,19.42247 -1.08049,20.66158 -2.08303,3.89217 -6.80045,4.85222 -23.63739,4.81046 -11.1411,-0.0276 -16.71469,-0.4448 -18.95338,-1.41862 z m 75,0 c -1.7442,-0.75871 -3.6567,-2.28652 -4.25,-3.39512 -0.66282,-1.23848 -1.07874,-9.32395 -1.07874,-20.97059 0,-25.59468 -1.96261,-23.58523 23.42705,-23.98612 l 19.60761,-0.3096 2.98267,2.98267 2.98267,2.98267 0,18.64267 c 0,11.44196 -0.41734,19.42247 -1.08049,20.66158 -2.08303,3.89217 -6.80045,4.85222 -23.63739,4.81046 -11.1411,-0.0276 -16.71469,-0.4448 -18.95338,-1.41862 z m -150,-75 c -1.7442,-0.75871 -3.6567,-2.28652 -4.25,-3.39512 -0.66282,-1.23848 -1.07874,-9.32395 -1.07874,-20.97059 0,-25.59468 -1.96261,-23.58523 23.42705,-23.98612 l 19.60761,-0.3096 2.98267,2.98267 2.98267,2.98267 0,18.64267 c 0,11.44196 -0.41734,19.42247 -1.08049,20.66158 -2.08303,3.89217 -6.80045,4.85222 -23.63739,4.81046 -11.1411,-0.0276 -16.71469,-0.4448 -18.95338,-1.41862 z m 75,0 c -1.7442,-0.75871 -3.6567,-2.28652 -4.25,-3.39512 -0.66282,-1.23848 -1.07874,-9.32395 -1.07874,-20.97059 0,-25.59468 -1.96261,-23.58523 23.42705,-23.98612 l 19.60761,-0.3096 2.98267,2.98267 2.98267,2.98267 0,18.64267 c 0,11.44196 -0.41734,19.42247 -1.08049,20.66158 -2.08303,3.89217 -6.80045,4.85222 -23.63739,4.81046 -11.1411,-0.0276 -16.71469,-0.4448 -18.95338,-1.41862 z m 75,0 c -1.7442,-0.75871 -3.6567,-2.28652 -4.25,-3.39512 -0.66282,-1.23848 -1.07874,-9.32395 -1.07874,-20.97059 0,-25.59468 -1.96261,-23.58523 23.42705,-23.98612 l 19.60761,-0.3096 2.98267,2.98267 2.98267,2.98267 0,18.64267 c 0,11.44196 -0.41734,19.42247 -1.08049,20.66158 -2.08303,3.89217 -6.80045,4.85222 -23.63739,4.81046 -11.1411,-0.0276 -16.71469,-0.4448 -18.95338,-1.41862 z"
       id="path5303"
       inkscape:connector-curvature="0" />
  </g>
</svg>
